# xmcd CD database file
# Copyright (C) 1995-1998 Ti Kan
#
# Track frame offsets:
#	150
#	26076
#	55324
#	69096
#	91729
#	105652
#	122086
#	132962
#	143982
#	159542
#	175110
#	185063
#	190576
#	202013
#	216468
#	231860
#	240675
#	259364
#	278458
#	291492
#	310632
#
# Disc length: 4371 seconds
#
# Revision: 1
# Processed by: cddbd v1.4b41PL1 Copyright (c) Steve Scherf et al.
# Submitted via: CDex 1.30
#
DISCID=3a111115
DTITLE=Jack  Myrick - Old Country's Greatest Hits Vol. 1
DYEAR=2000
DGENRE=Country
TTITLE0=Hey Joe
TTITLE1=Ruby
TTITLE2=Jimmy Brown
TTITLE3=Lonesome 77-203
TTITLE4=I'm Movin' On
TTITLE5=That Just About Does It
TTITLE6=Pick Me Up On Your Way Down
TTITLE7=Daddy Frank
TTITLE8=I'll Go On Alone
TTITLE9=Walkin' The Floor Over You
TTITLE10=Lookin' Back To See
TTITLE11=Have I Told You Lately
TTITLE12=Souix City Sue
TTITLE13=Fireball Mail
TTITLE14=Rubyann
TTITLE15=I've Been Everywhere
TTITLE16=Chattanooga Choo-Choo
TTITLE17=Blue Moon Of Kentucky
TTITLE18=Are You Teasing Me
TTITLE19=Margaritaville
TTITLE20=Only Daddy That'll Walk The Line
EXTD=\n\nYEAR: 2000  ID3G:   2
EXTT0=
EXTT1=
EXTT2=
EXTT3=
EXTT4=
EXTT5=
EXTT6=
EXTT7=
EXTT8=
EXTT9=
EXTT10=
EXTT11=
EXTT12=
EXTT13=
EXTT14=
EXTT15=
EXTT16=
EXTT17=
EXTT18=
EXTT19=
EXTT20=
PLAYORDER=
